<svg width="53" height="53" viewBox="0 0 53 53" fill="none" xmlns="http://www.w3.org/2000/svg">
<path d="M29.8123 13.25C32.5975 13.2492 35.338 13.9508 37.7802 15.29C40.2224 16.6291 42.2874 18.5625 43.7843 20.9114C45.2812 23.2602 46.1615 25.9486 46.3439 28.7278C46.5263 31.5071 46.0049 34.2875 44.8278 36.8118L46.3417 44.3941C46.3948 44.6613 46.3813 44.9375 46.3022 45.1982C46.2232 45.4589 46.0811 45.696 45.8884 45.8886C45.6958 46.0813 45.4586 46.2234 45.1979 46.3025C44.9372 46.3815 44.6611 46.3951 44.3939 46.3419L36.8149 44.8281C34.568 45.8739 32.1149 46.4022 29.6367 46.3739C27.1584 46.3456 24.7181 45.7615 22.4956 44.6646C20.2731 43.5677 18.3251 41.986 16.7952 40.0362C15.2653 38.0863 14.1926 35.8179 13.656 33.3982C13.1194 30.9786 13.1327 28.4693 13.6949 26.0555C14.2571 23.6417 15.3539 21.3848 16.9043 19.4512C18.4548 17.5177 20.4195 15.9567 22.6535 14.8835C24.8875 13.8102 27.3338 13.252 29.8123 13.25Z" fill="url(#paint0_radial_196_654)"/>
<path d="M23.1873 6.625C20.4021 6.62421 17.6616 7.32584 15.2194 8.66498C12.7772 10.0041 10.7122 11.9375 9.2153 14.2864C7.71843 16.6352 6.83808 19.3236 6.65568 22.1028C6.47327 24.8821 6.99471 27.6625 8.17176 30.1868L6.65794 37.7691C6.60476 38.0363 6.61829 38.3125 6.69735 38.5732C6.77641 38.8339 6.91855 39.071 7.11117 39.2636C7.3038 39.4563 7.54097 39.5984 7.80166 39.6775C8.06235 39.7565 8.33852 39.7701 8.60569 39.7169L16.1847 38.2031C18.4316 39.2489 20.8847 39.7772 23.3629 39.7489C25.8412 39.7206 28.2815 39.1365 30.504 38.0396C32.7265 36.9427 34.6745 35.361 36.2044 33.4112C37.7343 31.4613 38.807 29.1929 39.3436 26.7732C39.8802 24.3536 39.8669 21.8443 39.3047 19.4305C38.7425 17.0167 37.6457 14.7598 36.0952 12.8262C34.5448 10.8927 32.5801 9.33174 30.3461 8.25848C28.1121 7.18522 25.6658 6.62701 23.1873 6.625Z" fill="url(#paint1_linear_196_654)"/>
<path d="M21.1303 31.4721C21.1191 31.1935 21.1644 30.9155 21.2633 30.6547C21.3622 30.394 21.5128 30.156 21.706 29.9549C21.8992 29.7538 22.131 29.5939 22.3876 29.4846C22.6441 29.3753 22.9201 29.319 23.1989 29.319C23.4778 29.319 23.7537 29.3753 24.0103 29.4846C24.2668 29.5939 24.4986 29.7538 24.6918 29.9549C24.885 30.156 25.0356 30.394 25.1345 30.6547C25.2335 30.9155 25.2787 31.1935 25.2676 31.4721C25.2676 32.0212 25.0495 32.5478 24.6612 32.936C24.2729 33.3243 23.7463 33.5424 23.1973 33.5424C22.6482 33.5424 22.1216 33.3243 21.7333 32.936C21.3451 32.5478 21.127 32.0212 21.127 31.4721" fill="url(#paint2_linear_196_654)"/>
<path d="M17.0594 19.7226C17.0263 15.9563 19.7259 13.25 23.1974 13.25C26.6126 13.25 29.3388 16.0524 29.3388 19.7094C29.3388 21.6472 28.6266 22.7138 26.9273 24.0753L26.0098 24.7841C25.1949 25.4301 24.9233 25.7779 24.8669 26.2714L24.8272 26.7882C24.7535 27.1954 24.5299 27.5603 24.2006 27.811C23.8712 28.0617 23.46 28.18 23.0478 28.1426C22.6356 28.1052 22.2523 27.9148 21.9735 27.609C21.6947 27.3031 21.5404 26.9039 21.5412 26.4901C21.5412 24.5986 22.2368 23.5618 23.9129 22.2203L24.8338 21.5081C25.7911 20.7495 26.0263 20.3752 26.0263 19.7061C26.0263 17.861 24.7643 16.5625 23.1974 16.5625C21.5644 16.5625 20.352 17.7749 20.3719 19.6928C20.3741 19.9103 20.3334 20.1261 20.2521 20.3279C20.1709 20.5297 20.0508 20.7135 19.8985 20.8688C19.591 21.1825 19.1715 21.3612 18.7322 21.3656C18.2929 21.37 17.8699 21.1997 17.5562 20.8922C17.2425 20.5847 17.0638 20.1619 17.0594 19.7226Z" fill="url(#paint3_linear_196_654)"/>
<defs>
<radialGradient id="paint0_radial_196_654" cx="0" cy="0" r="1" gradientUnits="userSpaceOnUse" gradientTransform="translate(22.1405 22.0944) rotate(49.2378) scale(23.3468 23.3667)">
<stop offset="0.63" stop-color="#3D35B1"/>
<stop offset="0.85" stop-color="#6553C9"/>
<stop offset="1" stop-color="#7660D3"/>
</radialGradient>
<linearGradient id="paint1_linear_196_654" x1="6.62482" y1="6.625" x2="39.7498" y2="39.75" gradientUnits="userSpaceOnUse">
<stop stop-color="#0FAFFF"/>
<stop offset="1" stop-color="#2764E7"/>
</linearGradient>
<linearGradient id="paint2_linear_196_654" x1="18.1325" y1="13.6078" x2="23.4921" y2="34.5063" gradientUnits="userSpaceOnUse">
<stop stop-color="#FDFDFD"/>
<stop offset="1" stop-color="#CCEAFF"/>
</linearGradient>
<linearGradient id="paint3_linear_196_654" x1="18.1326" y1="13.6077" x2="23.4923" y2="34.5063" gradientUnits="userSpaceOnUse">
<stop stop-color="#FDFDFD"/>
<stop offset="1" stop-color="#CCEAFF"/>
</linearGradient>
</defs>
</svg>
