<svg width="97" height="97" viewBox="0 0 97 97" fill="none" xmlns="http://www.w3.org/2000/svg">
<g filter="url(#filter0_d_196_611)">
<circle cx="48.5" cy="48.5" r="36.5" fill="#F5F0EB"/>
<circle cx="48.5" cy="48.5" r="36" stroke="#5C4033"/>
</g>
<path d="M67.5051 62.482C67.5097 62.9222 67.3962 63.4978 67.278 63.9722C66.452 67.3089 62.784 71.0531 57.6211 70.7125C52.942 70.4045 49.1309 68.1582 49.1309 65.0082C49.1309 61.8582 52.9326 59.304 57.6211 59.304C62.3095 59.304 67.4755 59.332 67.5051 62.482Z" fill="#EA596E"/>
<path d="M57.621 59.8329C55.1025 59.8329 49.3548 60.5298 48.0357 60.5298C45.7054 60.5298 43.8154 61.992 43.8154 63.7964C43.8154 64.6644 44.2603 65.4484 44.9728 66.0333C44.9728 66.0333 46.5377 67.6029 49.3563 66.85C50.5899 66.5202 52.5965 64.0718 56.1292 63.6829C57.8885 63.4884 61.1848 64.8495 66.9777 64.8822C67.2265 64.3471 67.2779 63.9753 67.2779 63.9753C67.2779 60.8222 62.3094 59.8329 57.621 59.8329Z" fill="#DD2E44"/>
<path d="M67.2776 63.9722C67.2776 63.9722 70.6749 63.2831 72.7873 60.5049C75.2498 57.2647 74.9262 53.7973 74.9262 53.7973C77.4213 49.1307 74.1485 44.7549 74.1485 44.7549C73.8233 39.8285 70.7776 37.7876 70.7776 37.7876C68.8005 33.0882 64.4262 31.8251 64.4262 31.8251C60.9916 27.8071 54.8985 27.9362 54.8985 27.9362C54.8985 27.9362 49.1896 25.844 41.3527 28.196C40.0569 28.5849 35.7138 29.4918 32.5373 31.4362C22.5258 37.5651 21.7682 47.1225 21.9082 48.6765C22.6845 57.3611 28.7776 58.9167 32.6665 59.8236C33.5733 62.286 36.9116 66.8236 42.9067 65.1389C50.2956 63.8431 53.4067 61.6389 55.222 61.6389C57.0373 61.6389 62.0929 63.5833 67.2776 63.9722Z" fill="#F4ABBA"/>
<path d="M48.591 50.008C52.2124 48.0558 54.1755 48.2378 55.9084 48.3949C56.459 48.4447 56.9801 48.4836 57.5075 48.4805C60.5937 48.4105 63.0935 47.11 64.1995 45.8516C64.3263 45.6952 64.3877 45.4958 64.3708 45.2952C64.3538 45.0945 64.2599 44.9082 64.1087 44.7753C63.9575 44.6424 63.7607 44.5732 63.5595 44.5821C63.3584 44.5911 63.1685 44.6775 63.0297 44.8233C62.1773 45.794 60.0757 46.8658 57.4717 46.9249C57.005 46.9389 56.5368 46.8922 56.0515 46.8471C54.1926 46.6745 51.8841 46.4629 47.8521 48.6391C46.8177 49.1976 45.399 49.4045 43.8621 49.56C40.4446 44.6273 42.501 40.3309 43.089 39.3073C43.1466 39.3105 43.2026 39.3291 43.2617 39.3291C43.8839 39.3291 44.5093 39.1767 45.0755 38.8562C45.248 38.7512 45.3729 38.5832 45.4237 38.3878C45.4746 38.1924 45.4474 37.9848 45.348 37.809C45.2486 37.6332 45.0847 37.503 44.8911 37.4459C44.6974 37.3888 44.489 37.4092 44.3101 37.5029C43.8208 37.7723 43.2478 37.8471 42.7056 37.7125C42.1635 37.5778 41.6921 37.2435 41.3857 36.7765C41.27 36.6133 41.096 36.5011 40.8997 36.4629C40.7034 36.4247 40.4999 36.4636 40.3316 36.5715C40.1632 36.6795 40.0429 36.848 39.9956 37.0423C39.9483 37.2366 39.9776 37.4417 40.0775 37.6149C40.4461 38.192 40.9657 38.626 41.5521 38.9169C40.7417 40.5627 39.2033 44.8902 42.1308 49.7296C40.0713 49.9318 38.0086 50.2227 36.3939 51.2633C35.2594 52.0074 34.2696 52.9514 33.4726 54.0493C32.4941 53.8813 28.9117 52.9993 28.2864 49.0233C28.6753 48.7216 28.9895 48.3233 29.1839 47.8318C29.2215 47.7368 29.24 47.6353 29.2384 47.5332C29.2368 47.4311 29.215 47.3302 29.1744 47.2365C29.1339 47.1427 29.0752 47.0579 29.0018 46.9868C28.9285 46.9158 28.8418 46.8598 28.7468 46.8222C28.6518 46.7847 28.5504 46.7661 28.4482 46.7678C28.3461 46.7694 28.2452 46.7911 28.1515 46.8317C28.0578 46.8723 27.9729 46.931 27.9018 47.0043C27.8308 47.0777 27.7748 47.1644 27.7373 47.2593C27.6786 47.423 27.5851 47.5718 27.4631 47.6957C27.3412 47.8195 27.1937 47.9153 27.031 47.9765C26.8662 48.0309 26.6916 48.0494 26.5191 48.0306C26.3466 48.0118 26.18 47.9562 26.0308 47.8676C25.9415 47.8179 25.8434 47.7864 25.7419 47.7747C25.6404 47.763 25.5376 47.7714 25.4394 47.7994C25.241 47.856 25.0733 47.9891 24.973 48.1693C24.8728 48.3496 24.8483 48.5624 24.9048 48.7607C24.9614 48.9591 25.0945 49.1269 25.2748 49.2271C25.7166 49.4729 26.1895 49.5973 26.6593 49.5973C26.7168 49.5973 26.7713 49.5709 26.8288 49.5678C27.5693 53.3213 30.5357 54.9702 32.6341 55.4696C32.3597 56.0544 32.1856 56.6812 32.1193 57.3238C32.1011 57.5292 32.1653 57.7335 32.2978 57.8916C32.4302 58.0497 32.62 58.1487 32.8255 58.1669L32.8955 58.17C33.0899 58.17 33.2772 58.0972 33.4206 57.9659C33.564 57.8346 33.653 57.6543 33.6701 57.4607C33.8381 55.5738 35.6379 53.6029 37.237 52.5685C38.7366 51.6025 40.9315 51.3987 43.0564 51.2011C45.1175 51.0129 47.065 50.8325 48.591 50.008ZM68.6048 47.6685C68.5058 47.8496 68.4828 48.0626 68.5408 48.2607C68.5989 48.4588 68.7333 48.6257 68.9144 48.7247C69.0955 48.8237 69.3085 48.8467 69.5066 48.7887C69.7047 48.7306 69.8716 48.5962 69.9706 48.4151C70.0001 48.3622 72.8359 43.05 67.5268 39.48C67.3556 39.3649 67.1457 39.3225 66.9432 39.3622C66.7408 39.4019 66.5624 39.5204 66.4473 39.6916C66.3321 39.8628 66.2898 40.0727 66.3294 40.2752C66.3691 40.4776 66.4876 40.656 66.6588 40.7711C70.7717 43.5369 68.695 47.5005 68.6048 47.6685ZM36.3628 35.1089C36.4862 35.1089 36.6078 35.0796 36.7176 35.0233C36.8274 34.9671 36.9223 34.8855 36.9944 34.7853C39.2499 31.6478 42.3735 32.7211 42.5057 32.7709C42.6973 32.8341 42.9059 32.8205 43.0876 32.7327C43.2693 32.645 43.4098 32.4902 43.4794 32.3008C43.5491 32.1115 43.5424 31.9025 43.4609 31.7179C43.3793 31.5334 43.2293 31.3878 43.0424 31.3118C41.549 30.758 38.1004 30.5838 35.7313 33.8785C35.6481 33.9947 35.5985 34.1315 35.5881 34.274C35.5776 34.4165 35.6065 34.5592 35.6718 34.6863C35.737 34.8134 35.836 34.9201 35.9579 34.9947C36.0798 35.0692 36.2199 35.1087 36.3628 35.1089ZM56.697 32.172C60.1581 31.8905 61.7324 34.3996 61.8039 34.5178C61.9085 34.6958 62.0795 34.825 62.2794 34.8769C62.3783 34.9026 62.4813 34.9086 62.5826 34.8945C62.6838 34.8804 62.7813 34.8465 62.8695 34.7947C62.9576 34.7429 63.0347 34.6743 63.0963 34.5927C63.1579 34.5111 63.2029 34.4182 63.2286 34.3192C63.2543 34.2203 63.2603 34.1173 63.2462 34.016C63.2321 33.9148 63.1982 33.8173 63.1464 33.7291C63.0624 33.5876 61.0619 30.2789 56.5757 30.6211C56.4739 30.6291 56.3746 30.657 56.2836 30.7034C56.1925 30.7497 56.1115 30.8135 56.0451 30.8911C55.9111 31.0479 55.8448 31.2516 55.8609 31.4572C55.877 31.6629 55.9741 31.8537 56.1309 31.9878C56.2877 32.1218 56.4914 32.1881 56.697 32.172ZM70.9304 54.9002C70.5477 54.8785 70.1261 55.1818 70.0919 55.6111C70.0888 55.6391 69.8415 58.2851 67.1208 59.1796C66.9429 59.2355 66.7911 59.3535 66.6931 59.5122C66.5951 59.6708 66.5575 59.8594 66.5871 60.0435C66.6168 60.2276 66.7117 60.3949 66.8545 60.5147C66.9974 60.6346 67.1786 60.699 67.365 60.6962C67.4475 60.6962 67.5294 60.6831 67.6077 60.6573C71.2975 59.4471 71.6304 55.8911 71.6428 55.7402C71.6513 55.6383 71.6396 55.5356 71.6084 55.4382C71.5772 55.3408 71.5271 55.2504 71.4609 55.1724C71.3947 55.0944 71.3138 55.0302 71.2227 54.9835C71.1317 54.9368 71.0323 54.9085 70.9304 54.9002Z" fill="#EA596E"/>
<path d="M32.4287 47.3418C32.3981 47.4416 32.3879 47.5465 32.3988 47.6503C32.4096 47.7542 32.4412 47.8547 32.4917 47.9461C32.5422 48.0374 32.6106 48.1177 32.6928 48.1821C32.7749 48.2464 32.8692 48.2936 32.97 48.3207C33.0708 48.3479 33.176 48.3545 33.2794 48.3401C33.3828 48.3258 33.4822 48.2907 33.5718 48.2371C33.6614 48.1835 33.7392 48.1124 33.8007 48.0281C33.8623 47.9437 33.9062 47.8479 33.9298 47.7462C34.0796 47.2073 34.4279 46.745 34.9046 46.4523C35.3814 46.1597 35.9512 46.0584 36.4996 46.1689C36.5996 46.1898 36.7028 46.1909 36.8032 46.1719C36.9035 46.153 36.9992 46.1145 37.0847 46.0586C37.1703 46.0027 37.2439 45.9305 37.3015 45.8461C37.3591 45.7618 37.3996 45.6669 37.4205 45.5669C37.4414 45.4669 37.4425 45.3638 37.4236 45.2634C37.4046 45.163 37.3661 45.0673 37.3102 44.9818C37.2543 44.8963 37.1821 44.8226 37.0978 44.765C37.0134 44.7074 36.9185 44.6669 36.8185 44.646C36.1712 44.5144 35.5003 44.5606 34.8772 44.7798C33.0634 41.678 33.4165 38.6198 33.4212 38.5871C33.4486 38.3827 33.3937 38.1758 33.2685 38.0118C33.1434 37.8479 32.9583 37.7404 32.7538 37.7129C32.5501 37.6867 32.3442 37.7417 32.1807 37.8659C32.0171 37.9902 31.909 38.1738 31.8796 38.3771C31.8594 38.528 31.4441 41.9798 33.5332 45.5544C33.0015 46.0322 32.6182 46.6526 32.4287 47.3418ZM49.8183 43.4996C50.129 43.2174 50.5348 43.063 50.9545 43.0673C51.3742 43.0716 51.7768 43.2343 52.0816 43.5229C52.2297 43.6665 52.4288 43.7453 52.6351 43.7421C52.8413 43.7389 53.0378 43.6539 53.1814 43.5058C53.3252 43.3579 53.4043 43.1589 53.4014 42.9527C53.3985 42.7464 53.3137 42.5498 53.1658 42.406C52.8146 42.0716 52.3901 41.8238 51.9261 41.6827C52.3865 40.1022 52.2045 39.4007 51.7767 38.0862C51.6921 37.829 51.6107 37.5708 51.5325 37.3116L51.4858 37.156C50.9196 35.2769 50.5447 34.0371 51.6212 32.2871C51.7293 32.1114 51.7631 31.8999 51.7153 31.6992C51.6674 31.4985 51.5418 31.325 51.3661 31.2169C51.1903 31.1088 50.9788 31.075 50.7781 31.1228C50.5774 31.1706 50.4039 31.2963 50.2958 31.472C48.8523 33.8178 49.3827 35.574 49.9972 37.6071L50.0438 37.7627C50.1351 38.0634 50.2196 38.3315 50.2974 38.5669C50.6816 39.7507 50.7983 40.1473 50.3285 41.5784C49.7404 41.6835 49.195 41.9557 48.7574 42.3624C48.612 42.5044 48.5279 42.6977 48.5232 42.9008C48.5184 43.104 48.5934 43.301 48.732 43.4495C48.8707 43.5981 49.062 43.6866 49.265 43.6959C49.468 43.7053 49.6666 43.6348 49.8183 43.4996ZM59.7194 38.8562C60.1813 38.8576 60.6378 38.7561 61.0556 38.5591C61.2423 38.4712 61.3864 38.3128 61.4563 38.1187C61.5262 37.9245 61.516 37.7106 61.4282 37.5239C61.3403 37.3372 61.1819 37.1931 60.9877 37.1232C60.7936 37.0533 60.5796 37.0635 60.393 37.1513C60.0107 37.3268 59.5762 37.351 59.1768 37.2191C58.7773 37.0872 58.4427 36.809 58.2401 36.4404C58.1938 36.347 58.1293 36.2638 58.0503 36.1958C57.9712 36.1278 57.8793 36.0763 57.78 36.0445C57.6807 36.0128 57.576 36.0013 57.4722 36.0107C57.3684 36.0202 57.2675 36.0505 57.1756 36.0997C57.0837 36.1489 57.0026 36.2162 56.9372 36.2974C56.8718 36.3786 56.8234 36.4721 56.7948 36.5724C56.7663 36.6726 56.7582 36.7776 56.7711 36.8811C56.7839 36.9846 56.8174 37.0844 56.8696 37.1747C57.1496 37.6973 57.5665 38.1096 58.0518 38.3958C57.2165 40.4258 57.691 42.5818 58.0783 43.7251C58.1079 43.8254 58.1575 43.9188 58.224 43.9995C58.2905 44.0802 58.3727 44.1467 58.4655 44.195C58.5583 44.2432 58.6599 44.2723 58.7642 44.2803C58.8685 44.2884 58.9734 44.2754 59.0725 44.242C59.1717 44.2086 59.263 44.1555 59.3412 44.086C59.4194 44.0164 59.4827 43.9318 59.5274 43.8373C59.5721 43.7427 59.5973 43.6401 59.6014 43.5355C59.6055 43.431 59.5885 43.3267 59.5514 43.2289C59.2901 42.4542 58.783 40.4973 59.5483 38.8329C59.6074 38.836 59.6618 38.8562 59.7194 38.8562ZM67.1814 53.5236C67.1755 53.4214 67.1493 53.3215 67.1045 53.2295C67.0596 53.1375 66.997 53.0554 66.9202 52.9878C66.8433 52.9202 66.7538 52.8686 66.6569 52.8358C66.5599 52.8031 66.4575 52.7899 66.3554 52.7971C65.9824 52.8229 65.608 52.7747 65.2537 52.6554C64.8994 52.5361 64.5721 52.3479 64.2907 52.1018C64.0093 51.8556 63.7792 51.5563 63.6138 51.2211C63.4484 50.8858 63.3508 50.5211 63.3267 50.148C63.3089 49.9436 63.2125 49.7541 63.0579 49.6192C62.9034 49.4844 62.7025 49.4146 62.4976 49.4247C62.3957 49.4316 62.2961 49.4585 62.2046 49.5039C62.113 49.5493 62.0313 49.6124 61.9642 49.6894C61.897 49.7663 61.8456 49.8558 61.8131 49.9527C61.7805 50.0495 61.7673 50.1518 61.7743 50.2538C61.8381 51.1716 62.1881 51.9991 62.7201 52.6727C61.4694 54.1442 59.8314 54.5627 58.9183 54.67C58.111 54.7664 57.4047 54.684 56.5881 54.5876C55.8398 54.502 54.9936 54.404 53.9467 54.4351L53.939 54.4367C53.9078 53.9918 53.8021 53.3431 53.4645 52.8033C53.3485 52.6435 53.176 52.5337 52.9821 52.4961C52.7882 52.4585 52.5873 52.496 52.4199 52.6009C52.2525 52.7058 52.1313 52.8704 52.0806 53.0613C52.0299 53.2522 52.0536 53.4552 52.147 53.6293C52.3554 53.9638 52.3943 54.4973 52.3943 54.7571C51.6103 55.0387 50.9321 55.4524 50.3192 55.8522C49.2241 56.5647 48.3607 57.1278 47.0618 56.8353C45.8858 56.5662 44.7083 56.5118 43.7096 56.6518C43.5541 56.2613 43.3083 55.7947 42.9287 55.4353C42.7788 55.2936 42.5786 55.2173 42.3724 55.2231C42.1662 55.229 41.9707 55.3165 41.829 55.4664C41.6872 55.6164 41.6109 55.8165 41.6167 56.0228C41.6226 56.229 41.7101 56.4245 41.8601 56.5662C41.9938 56.6922 42.0996 56.8758 42.1852 57.0593C40.4694 57.7656 39.6092 58.9462 39.5687 59.0038C39.4862 59.1199 39.4373 59.2566 39.4272 59.3987C39.4172 59.5408 39.4465 59.683 39.5119 59.8095C39.5772 59.9361 39.6762 60.0423 39.7979 60.1164C39.9196 60.1905 40.0594 60.2296 40.2018 60.2296C40.3248 60.2301 40.4462 60.2015 40.556 60.1461C40.6658 60.0906 40.7608 60.01 40.8334 59.9107C40.8412 59.8982 41.6952 58.7549 43.3798 58.2929C44.251 58.0533 45.5001 58.0736 46.7181 58.3504C47.0587 58.4282 47.3745 58.4547 47.681 58.4593C47.8256 58.7984 47.8816 59.2013 47.8894 59.3507C47.9005 59.549 47.9871 59.7356 48.1315 59.8722C48.2758 60.0087 48.4669 60.0848 48.6656 60.0849L48.7076 60.0833C48.9129 60.0725 49.1055 59.9808 49.2433 59.8284C49.3812 59.6759 49.4531 59.4751 49.4434 59.2698C49.4178 58.9074 49.3499 58.5493 49.2412 58.2027C49.9583 57.9429 50.5821 57.5369 51.1685 57.1558C52.0583 56.5756 52.8998 56.0264 53.9996 55.9907C54.9205 55.958 55.6796 56.0467 56.4123 56.1322C57.1496 56.2178 57.8745 56.2738 58.6741 56.2271C58.8156 56.6207 58.8047 57.1464 58.783 57.3222C58.7698 57.4318 58.7799 57.5428 58.8127 57.6482C58.8455 57.7535 58.9002 57.8507 58.9732 57.9334C59.0462 58.0161 59.1359 58.0824 59.2363 58.128C59.3368 58.1736 59.4457 58.1975 59.5561 58.198C59.7446 58.1977 59.9267 58.1289 60.0683 58.0045C60.21 57.88 60.3015 57.7083 60.3261 57.5213C60.3825 57.0112 60.3515 56.4951 60.2343 55.9953C61.6535 55.6188 62.9253 54.821 63.8821 53.7071C64.653 54.1841 65.5535 54.4087 66.4581 54.3496C66.6634 54.3356 66.8548 54.2408 66.9904 54.086C67.1259 53.9312 67.1946 53.7289 67.1814 53.5236Z" fill="#EA596E"/>
<defs>
<filter id="filter0_d_196_611" x="0" y="0" width="97" height="97" filterUnits="userSpaceOnUse" color-interpolation-filters="sRGB">
<feFlood flood-opacity="0" result="BackgroundImageFix"/>
<feColorMatrix in="SourceAlpha" type="matrix" values="0 0 0 0 0 0 0 0 0 0 0 0 0 0 0 0 0 0 127 0" result="hardAlpha"/>
<feMorphology radius="4" operator="dilate" in="SourceAlpha" result="effect1_dropShadow_196_611"/>
<feOffset/>
<feGaussianBlur stdDeviation="4"/>
<feComposite in2="hardAlpha" operator="out"/>
<feColorMatrix type="matrix" values="0 0 0 0 0.360784 0 0 0 0 0.25098 0 0 0 0 0.2 0 0 0 0.4 0"/>
<feBlend mode="normal" in2="BackgroundImageFix" result="effect1_dropShadow_196_611"/>
<feBlend mode="normal" in="SourceGraphic" in2="effect1_dropShadow_196_611" result="shape"/>
</filter>
</defs>
</svg>
