<svg width="53" height="53" viewBox="0 0 53 53" fill="none" xmlns="http://www.w3.org/2000/svg">
<path d="M45.547 9.10938H30.1439L26.6657 16.0656H7.2876V43.8906H49.0251V9.10938H45.547ZM45.547 16.0656H31.9657L33.7876 12.5875H45.547V16.0656Z" fill="#558DBF"/>
<path d="M34.1517 16.5625V26.4983L25.5591 21.5296" fill="#B2CDE5"/>
<path d="M42.7428 21.5296L34.1519 26.4983V16.5625" fill="#B2CDE5"/>
<path d="M42.7428 21.5296V31.4688L34.1519 26.4984" fill="#4C89C3"/>
<path d="M25.5591 21.5296V31.4688L34.1517 26.4984M34.1517 26.4984V36.4375L25.5591 31.4688" fill="#0057A9"/>
<path d="M34.1552 26.4984L34.1519 36.4375L42.7428 31.4721" fill="#4C89C3"/>
<path d="M42.7428 31.4688V41.4062L34.1519 36.4375" fill="#B2CDE5"/>
<path d="M25.5591 31.4688V41.4062L34.1517 36.4375" fill="#B2CDE5"/>
<path d="M34.1517 36.4375V46.375L25.5591 41.4062" fill="#4C89C3"/>
<path d="M34.1552 36.4375L34.1519 46.375L42.7428 41.4096" fill="#0057A9"/>
<path d="M25.5592 31.4688V41.4062L16.9683 36.4375" fill="#B2CDE5"/>
<path d="M16.9683 36.4375V46.375L25.5592 41.4062M25.5592 41.4062V51.3438L16.9683 46.375" fill="#0057A9"/>
<path d="M25.5624 41.4062L25.5591 51.3438L34.1517 46.3783" fill="#4C89C3"/>
<path d="M51.3353 36.4408L42.7427 41.4062L42.7476 31.4688" fill="#B2CDE5"/>
<path d="M51.3353 36.4375V46.375L42.7427 41.4062" fill="#4C89C3"/>
<path d="M42.7428 41.4062V51.3438L34.1519 46.375" fill="#0057A9"/>
<path d="M42.7476 41.4062L42.7427 51.3438L51.3353 46.3783" fill="#4C89C3"/>
</svg>
