<svg width="16" height="16" viewBox="0 0 16 16" fill="none" xmlns="http://www.w3.org/2000/svg">
<path d="M10.9833 10.3667H10.983C10.8384 10.3668 10.6958 10.3995 10.5657 10.4625C10.4358 10.5253 10.3218 10.6166 10.232 10.7296C10.2319 10.7298 10.2317 10.7301 10.2315 10.7303L8.28248 13.1624L8.28228 13.1626C8.24793 13.2056 8.20436 13.2403 8.15479 13.2641L8.28477 13.5345L8.15479 13.2641C8.10522 13.2879 8.05092 13.3003 7.99592 13.3003C7.94092 13.3003 7.88662 13.2879 7.83705 13.2641C7.78748 13.2403 7.7439 13.2056 7.70955 13.1626L7.70936 13.1624L5.76034 10.7303C5.76016 10.7301 5.75997 10.7298 5.75979 10.7296C5.66997 10.6165 5.55579 10.5251 5.42575 10.4623C5.29546 10.3993 5.15262 10.3666 5.00792 10.3667C5.0079 10.3667 5.00788 10.3667 5.00786 10.3667H3.33325C2.39094 10.3667 1.63325 9.60898 1.63325 8.66667V4C1.63325 3.05769 2.39094 2.3 3.33325 2.3H12.6666C13.6095 2.3 14.3666 3.05762 14.3666 4V8.66667C14.3666 9.60905 13.6095 10.3667 12.6666 10.3667H10.9833Z" fill="#800080" fill-opacity="0.29" stroke="#800080" stroke-width="0.6"/>
<path d="M12.6666 10.6667H10.9833C10.8839 10.6667 10.7858 10.6893 10.6963 10.7326C10.6069 10.7758 10.5283 10.8388 10.4666 10.9167L8.51658 13.35C8.45413 13.4281 8.3749 13.4912 8.28477 13.5345C8.19464 13.5778 8.09592 13.6003 7.99592 13.6003C7.89591 13.6003 7.79719 13.5778 7.70706 13.5345C7.61693 13.4912 7.53771 13.4281 7.47525 13.35L5.52525 10.9167C5.46344 10.8387 5.3848 10.7757 5.29522 10.7324C5.20563 10.6891 5.10742 10.6666 5.00792 10.6667H3.33325C2.22525 10.6667 1.33325 9.77467 1.33325 8.66667V4C1.33325 2.892 2.22525 2 3.33325 2H12.6666C13.7753 2 14.6666 2.892 14.6666 4V8.66667C14.6666 9.77467 13.7753 10.6667 12.6666 10.6667Z" fill="#800080" fill-opacity="0.29" stroke="#800080" stroke-width="0.6" stroke-miterlimit="10" stroke-linejoin="round"/>
</svg>
