<svg width="56" height="56" viewBox="0 0 56 56" fill="none" xmlns="http://www.w3.org/2000/svg">
<path fill-rule="evenodd" clip-rule="evenodd" d="M2.73259 2.23172C0.292445 4.18494 0 5.13726 0 11.1331C0 17.3665 0.219851 18.0074 3.06548 20.0704C4.75067 21.2919 7.55067 22.7964 9.2877 23.4119C11.6241 24.2418 12.4444 25.192 12.4444 27.0692C12.4444 28.4639 12.9111 29.6052 13.4815 29.6052C14.0519 29.6052 14.5185 28.4555 14.5185 27.0491C14.5185 25.116 15.2175 24.3379 17.3911 23.8522C18.9705 23.4985 21.6399 22.0912 23.323 20.725C25.872 18.6567 26.1665 17.9746 25.0828 16.6464C24.3683 15.7691 22.399 14.4673 20.7065 13.7536C18.031 12.626 17.6296 11.9133 17.6296 8.29196C17.6296 1.60458 16.2753 0.0430685 10.4741 0.0430685C6.97718 0.0430685 4.6397 0.703994 2.73259 2.23172ZM39.6148 1.31002C38.9304 2.00684 38.3704 4.79941 38.3704 7.51701C38.3704 11.9978 38.0841 12.5774 35.2935 13.7536C33.601 14.4673 31.6317 15.7691 30.9172 16.6464C29.8335 17.9746 30.128 18.6567 32.677 20.725C34.3601 22.0912 37.0295 23.4985 38.6089 23.8522C40.7825 24.3379 41.4815 25.116 41.4815 27.0491C41.4815 28.4555 41.9481 29.6052 42.5185 29.6052C43.0889 29.6052 43.5556 28.4544 43.5556 27.0481C43.5556 25.0695 44.3634 24.2186 47.1209 23.2926C49.0809 22.6338 51.8809 21.1367 53.3431 19.9658C55.6962 18.0813 56 17.0719 56 11.1289C56 5.13832 55.7076 4.18494 53.2674 2.23172C50.176 -0.244107 41.7034 -0.816345 39.6148 1.31002ZM15.345 6.9395C15.651 11.169 15.6209 11.207 10.6784 12.8435C7.94267 13.7504 4.88652 14.8548 3.88889 15.2982C2.29496 16.0077 2.07407 15.4555 2.07407 10.7741C2.07407 4.23034 4.50178 1.91921 10.8889 2.38165C14.9354 2.67516 15.0443 2.78707 15.345 6.9395ZM51.6206 3.79852C53.4852 5.12776 53.9259 6.46017 53.9259 10.7741C53.9259 15.4555 53.705 16.0077 52.1111 15.2982C51.1124 14.8548 48.0791 13.7567 45.3704 12.8593C40.6933 11.3084 40.4444 11.0328 40.4444 7.39454C40.4444 5.28718 40.7556 3.24528 41.1361 2.85886C42.4356 1.53596 49.3121 2.15148 51.6206 3.79852ZM19.7556 15.3795C21.4376 16.2653 22.8148 17.4404 22.8148 17.9915C22.8148 19.457 17.1153 22.2147 14.0871 22.2147C11.1378 22.2147 4.14815 19.1075 4.14815 17.7962C4.14815 17.3232 4.26533 16.9283 4.40741 16.9199C4.54948 16.9114 6.53333 16.2188 8.81481 15.3827C14.1742 13.4168 16.0264 13.4157 19.7556 15.3795ZM49.225 16.0563C52.7012 17.6684 52.5467 18.3188 48.187 20.4357C43.6437 22.6412 40.2059 22.6898 36.2444 20.6035C32.4416 18.6018 32.396 17.4531 36.037 15.3774C39.0932 13.6353 44.6196 13.9193 49.225 16.0563ZM2.28148 31.928C1.59704 32.6248 1.03704 35.6887 1.03704 38.7368C1.03704 43.7581 1.35333 44.5204 4.40741 46.8495C6.26163 48.2632 8.82726 49.7444 10.1111 50.1414C11.6967 50.6324 12.4444 51.686 12.4444 53.4313C12.4444 54.8439 12.9111 56 13.4815 56C14.0519 56 14.5185 54.8714 14.5185 53.4925C14.5185 51.572 15.2206 50.8425 17.5145 50.3747C19.1634 50.039 21.8317 48.6095 23.4443 47.1968C26.0234 44.9385 26.2028 44.4137 24.9304 42.8543C24.135 41.8777 22.0505 40.3342 20.2979 39.423C18.5453 38.5108 16.7129 37.0718 16.2265 36.225C15.2455 34.5147 7.64815 30.7201 5.13333 30.6842C4.24978 30.6716 2.96593 31.2311 2.28148 31.928ZM45.7738 32.2838C42.5299 33.7175 40.8821 34.9127 32.6667 41.7838L29.5556 44.3863L32.5225 47.0754C34.1538 48.5546 36.8366 50.039 38.4855 50.3747C40.7794 50.8425 41.4815 51.572 41.4815 53.4925C41.4815 54.8714 41.9481 56 42.5185 56C43.0889 56 43.5556 54.8703 43.5556 53.4883C43.5556 51.686 44.4453 50.6017 46.7092 49.6473C53.3441 46.8495 54.963 44.7051 54.963 38.7135C54.963 30.6937 52.7987 29.1797 45.7738 32.2838ZM12.4444 35.8302C14.533 37.3663 15.0982 38.7938 15.3502 43.1732C15.6333 48.0868 15.455 48.6095 13.4939 48.6095C12.3013 48.6095 9.47644 47.6498 7.21778 46.4768C3.29259 44.438 3.11111 44.1192 3.11111 39.2615C3.11111 36.4668 3.44711 33.8379 3.85778 33.4198C4.92178 32.3366 9.40385 33.594 12.4444 35.8302ZM52.6825 38.8043C52.9916 44.2501 52.9646 44.3039 48.8341 46.4493C46.5474 47.6371 43.7236 48.6095 42.56 48.6095C40.7213 48.6095 40.4444 47.939 40.4444 43.4942C40.4444 38.0611 41.8341 35.9336 46.6884 33.9382C51.3209 32.0335 52.3444 32.8655 52.6825 38.8043ZM23.8519 44.3863C23.8519 44.7168 22.4519 45.8285 20.7407 46.8579L17.6296 48.7288V44.3863V40.0438L20.7407 41.9147C22.4519 42.9441 23.8519 44.0558 23.8519 44.3863ZM38.3704 44.4137V48.6633L35.2593 47.0258C33.5481 46.1252 32.1481 45.0346 32.1481 44.6038C32.1481 43.9735 37.1135 40.2993 38.1111 40.1916C38.2542 40.1758 38.3704 42.0762 38.3704 44.4137Z" fill="#2E2E2E"/>
</svg>
