<svg width="16" height="16" viewBox="0 0 16 16" fill="none" xmlns="http://www.w3.org/2000/svg">
<path d="M13.1666 5.16667H10.1666C9.98977 5.16667 9.8202 5.09643 9.69518 4.9714C9.57016 4.84638 9.49992 4.67681 9.49992 4.5V1.5H3.49992C3.32311 1.5 3.15354 1.57024 3.02851 1.69526C2.90349 1.82029 2.83325 1.98986 2.83325 2.16667V13.8333C2.83325 14.0101 2.90349 14.1797 3.02851 14.3047C3.15354 14.4298 3.32311 14.5 3.49992 14.5H12.4999C12.6767 14.5 12.8463 14.4298 12.9713 14.3047C13.0963 14.1797 13.1666 14.0101 13.1666 13.8333V5.16667ZM9.49992 1.5L13.1666 5.16667L9.49992 1.5ZM4.65325 5H7.55325H4.65325ZM4.65325 12.34H6.52992H4.65325ZM4.65325 6.83333H10.4433H4.65325ZM4.65325 8.67H10.4433H4.65325ZM4.65325 10.5067H10.4433H4.65325Z" fill="#FFA500" fill-opacity="0.33"/>
<path d="M13.1666 5.16667H10.1666C9.98977 5.16667 9.8202 5.09643 9.69518 4.9714C9.57016 4.84638 9.49992 4.67681 9.49992 4.5V1.5M13.1666 5.16667V13.8333C13.1666 14.0101 13.0963 14.1797 12.9713 14.3047C12.8463 14.4298 12.6767 14.5 12.4999 14.5H3.49992C3.32311 14.5 3.15354 14.4298 3.02851 14.3047C2.90349 14.1797 2.83325 14.0101 2.83325 13.8333V2.16667C2.83325 1.98986 2.90349 1.82029 3.02851 1.69526C3.15354 1.57024 3.32311 1.5 3.49992 1.5H9.49992M13.1666 5.16667L9.49992 1.5M4.65325 5H7.55325M4.65325 12.34H6.52992M4.65325 6.83333H10.4433M4.65325 8.67H10.4433M4.65325 10.5067H10.4433" stroke="#FFA500" stroke-linecap="round" stroke-linejoin="round"/>
</svg>
