<svg width="19" height="14" viewBox="0 0 19 14" fill="none" xmlns="http://www.w3.org/2000/svg">
<path d="M12.4999 6.99999C11.7289 6.99999 10.9834 6.63488 10.3999 5.97227C9.83253 5.32596 9.48604 4.46409 9.42491 3.54613C9.35966 2.56693 9.64129 1.66648 10.2177 1.01023C10.794 0.353977 11.5999 0 12.4999 0C13.3935 0 14.2016 0.36034 14.7761 1.015C15.3563 1.67602 15.6386 2.57488 15.5734 3.54573C15.5108 4.46488 15.1646 5.32636 14.5984 5.97187C14.0164 6.63488 13.2713 6.99999 12.4999 6.99999ZM17.4435 14H7.55667C7.39771 14.0009 7.24068 13.9631 7.09765 13.8895C6.95463 13.816 6.82942 13.7086 6.73167 13.5756C6.62799 13.4315 6.55639 13.2643 6.52223 13.0867C6.48807 12.9091 6.49224 12.7256 6.53443 12.5499C6.85017 11.2052 7.63242 10.0899 8.79641 9.3251C9.82953 8.64658 11.1447 8.27272 12.4999 8.27272C13.8818 8.27272 15.1624 8.63067 16.2015 9.3088C17.3681 10.0696 18.1515 11.1912 18.4657 12.5523C18.5074 12.7281 18.5111 12.9116 18.4766 13.0891C18.442 13.2667 18.3701 13.4336 18.2662 13.5776C18.1686 13.7099 18.0437 13.8168 17.9011 13.89C17.7585 13.9632 17.6019 14.0008 17.4435 14ZM5.41243 7.15908C4.09281 7.15908 2.93257 5.85772 2.82495 4.25846C2.7717 3.43914 3.01244 2.68147 3.49994 2.12585C3.98219 1.57579 4.66244 1.27273 5.41243 1.27273C6.16243 1.27273 6.83742 1.57738 7.3223 2.13062C7.81354 2.69062 8.05354 3.4467 7.99729 4.25926C7.88967 5.85812 6.7298 7.15908 5.41243 7.15908ZM7.87467 8.40993C7.21505 8.06789 6.35893 7.89687 5.41281 7.89687C4.30806 7.89687 3.23519 8.20232 2.39145 8.75675C1.43483 9.38635 0.791331 10.3031 0.531457 11.41C0.493427 11.5692 0.48983 11.7355 0.520935 11.8964C0.552041 12.0572 0.617043 12.2086 0.711081 12.3391C0.800311 12.4606 0.914624 12.5587 1.04523 12.626C1.17583 12.6933 1.31925 12.728 1.46445 12.7273H5.62693C5.69719 12.7272 5.76521 12.7011 5.81914 12.6533C5.87308 12.6056 5.9095 12.5393 5.92205 12.466C5.92618 12.4409 5.93143 12.4158 5.93743 12.3912C6.25543 11.0365 7.00055 9.89186 8.10154 9.05743C8.14204 9.02647 8.17461 8.98529 8.1963 8.9376C8.218 8.88992 8.22813 8.83725 8.22579 8.78436C8.22344 8.73148 8.20869 8.68005 8.18287 8.63474C8.15705 8.58943 8.12097 8.55167 8.07792 8.52488C8.01904 8.48829 7.95154 8.44971 7.87467 8.40993Z" fill="#747373"/>
</svg>
